HIERARCHY
ROOT hip
{
	OFFSET 0.000000 0.000000 0.000000 
	CHANNELS 6 Xposition Yposition Zposition Xrotation Zrotation Yrotation
	JOINT abdomen
	{
		OFFSET 0.000000 3.402643 0.000000 
		CHANNELS 3 Xrotation Zrotation Yrotation
		JOINT chest
		{
			OFFSET 0.000000 8.438565 -0.680529 
			CHANNELS 3 Xrotation Zrotation Yrotation
			JOINT neck
			{
				OFFSET 0.000000 10.207942 -0.272212 
				CHANNELS 3 Xrotation Zrotation Yrotation
				JOINT head
				{
					OFFSET 0.000000 3.130431 0.000000 
					CHANNELS 3 Xrotation Zrotation Yrotation
					End Site
					{
						OFFSET 0.000000 3.130435 0.000000 
					}
				}
			}
			JOINT lCollar
			{
				OFFSET 3.470700 6.669187 -0.816635 
				CHANNELS 3 Yrotation Zrotation Xrotation
				JOINT lShldr
				{
					OFFSET 3.198488 0.000000 0.000000 
					CHANNELS 3 Zrotation Yrotation Xrotation
					JOINT lForeArm
					{
						OFFSET 10.139888 0.000000 0.000000 
						CHANNELS 3 Yrotation Zrotation Xrotation
						JOINT lHand
						{
							OFFSET 8.370511 0.000000 0.000000 
							CHANNELS 3 Zrotation Yrotation Xrotation
							End Site
							{
								OFFSET 4.083176 0.000000 0.000000 
							}
						}
					}
				}
			}
			JOINT rCollar
			{
				OFFSET -3.470700 6.669187 -0.816635 
				CHANNELS 3 Yrotation Zrotation Xrotation
				JOINT rShldr
				{
					OFFSET -3.198488 0.000000 0.000000 
					CHANNELS 3 Zrotation Yrotation Xrotation
					JOINT rForeArm
					{
						OFFSET -10.139888 0.000000 0.000000 
						CHANNELS 3 Yrotation Zrotation Xrotation
						JOINT rHand
						{
							OFFSET -8.370511 0.000000 0.000000 
							CHANNELS 3 Zrotation Yrotation Xrotation
							End Site
							{
								OFFSET -4.083176 0.000000 0.000000 
							}
						}
					}
				}
			}
		}
	}
	JOINT lThigh
	{
		OFFSET 5.308129 -1.633274 1.361059 
		CHANNELS 3 Xrotation Zrotation Yrotation
		JOINT lShin
		{
			OFFSET -2.041588 -20.007561 0.000000 
			CHANNELS 3 Xrotation Zrotation Yrotation
			JOINT lFoot
			{
				OFFSET 0.000000 -19.190928 -1.224953 
				CHANNELS 3 Xrotation Yrotation Zrotation
				End Site
				{
					OFFSET 0.000000 -2.449906 4.627600 
				}
			}
		}
	}
	JOINT rThigh
	{
		OFFSET -5.308129 -1.633274 1.361059 
		CHANNELS 3 Xrotation Zrotation Yrotation
		JOINT rShin
		{
			OFFSET 2.041588 -20.007561 0.000000 
			CHANNELS 3 Xrotation Zrotation Yrotation
			JOINT rFoot
			{
				OFFSET 0.000000 -19.190928 -1.224953 
				CHANNELS 3 Xrotation Yrotation Zrotation
				End Site
				{
					OFFSET 0.000000 -2.449906 4.627600 
				}
			}
		}
	}
}
MOTION
Frames: 6
Frame Time: 0.016667
-90.151672 32.543999 150.598938 -4.760856 20.514963 -115.152893 16.503643 -4.993578 -2.911474 -14.543913 1.015115 -1.816640 1.658387 4.982528 4.803503 2.942269 6.040640 3.919005 -1.611697 -0.721832 -0.029283 -54.048203 -2.151222 -51.292255 -119.514351 -3.696946 -51.233421 17.147274 -13.238871 -4.200418 14.392721 -2.744085 -0.037793 71.602791 -11.902015 3.593754 98.462784 2.766848 -33.258701 11.767578 -0.009560 -0.001992 -78.457008 32.597668 -12.397133 89.113541 2.216269 -3.749467 -17.162642 0.688181 -11.958245 -69.981384 -34.575645 0.908316 82.932953 -2.323870 3.489951 -16.781675 3.460060 12.993392 
-90.080170 32.767612 150.733414 -4.464380 21.843039 -112.499092 16.203060 -4.213190 -2.948004 -14.897390 0.673388 -2.070399 0.201261 5.425828 6.337464 1.204676 5.122997 5.491310 -2.315729 -1.247633 -0.058532 -60.631821 0.366814 -43.185905 -125.602669 -3.301639 -47.308228 20.076111 -19.859814 -7.472782 14.491734 -1.372075 -0.018904 71.372375 -14.386830 3.492347 101.715881 2.755722 -33.460636 11.444182 -2.211054 -0.447525 -80.371666 31.045187 -12.681923 87.867218 1.967702 -3.879606 -16.535868 -0.830109 -12.264429 -69.376434 -34.234272 1.070681 82.591286 -2.323895 3.479644 -17.025742 -0.588898 11.676991 
-90.008987 32.991333 150.867355 -4.095581 23.152519 -109.801674 15.900903 -3.432881 -2.974528 -15.237679 0.322001 -2.324237 -1.246912 5.901403 7.864893 -0.555808 4.244668 7.100313 -3.010834 -1.772217 -0.097475 -66.795601 3.775947 -35.411583 -131.693832 -3.321448 -43.357021 23.550339 -26.286087 -11.267175 14.580077 -0.002458 -0.009451 71.145889 -16.868416 3.408090 104.967781 2.738314 -33.658379 11.128708 -4.413890 -0.887500 -82.264374 29.472446 -12.916658 86.641800 1.709492 -3.980966 -15.941317 -2.351946 -12.555563 -68.785522 -33.894852 1.233216 82.239418 -2.333627 3.470508 -17.351610 -4.632092 10.328916 
-90.074135 33.265110 150.749741 -3.001832 23.479086 -104.232147 15.527964 -3.363445 -3.336367 -15.593112 0.760845 -2.744287 -1.952536 5.643483 8.970513 -1.038089 2.299397 8.385824 -3.185774 -1.420898 -0.087728 -70.558502 3.701298 -29.132826 -137.669754 -3.243634 -42.265400 25.482477 -26.972862 -12.458269 13.955518 0.525334 -0.047474 72.824982 -19.706755 1.758775 107.395912 2.737318 -33.004078 11.144138 -6.777763 -1.421686 -82.900604 25.781454 -12.983378 84.962311 1.898158 -4.014053 -14.672733 -4.237416 -13.163780 -65.333504 -35.327484 -0.315203 82.147636 -2.421907 3.480597 -18.792625 -8.564597 8.885616 
-90.140038 33.539143 150.631226 -1.873783 23.697620 -98.632889 15.163986 -3.303707 -3.687895 -15.955184 1.199329 -3.174359 -2.664409 5.404162 10.075310 -1.560230 0.356165 9.697502 -3.351068 -1.069653 -0.077978 -74.299271 4.022331 -22.870501 -143.632706 -3.273521 -41.165501 27.428198 -27.620564 -13.668207 13.331667 1.053953 -0.085688 74.642601 -22.498106 -0.016319 109.816353 2.764758 -32.351276 11.183278 -9.143627 -1.948015 -83.518211 22.069513 -12.997893 83.291435 2.129802 -4.032229 -13.442212 -6.158788 -13.756799 -61.770374 -36.685024 -1.988010 82.046944 -2.490112 3.487676 -20.338703 -12.438260 7.274986 
-90.562454 33.928505 150.123627 1.212341 22.553698 -90.479500 14.885527 -2.622143 -3.470758 -15.784493 1.462583 -3.184550 -3.059732 6.827442 10.534900 -0.972871 -3.060392 10.776948 -2.997627 0.249248 -0.097564 -75.309006 -0.189223 -22.612871 -146.072861 -3.370981 -42.119614 28.271608 -22.503489 -11.664448 12.375696 1.580635 -0.095621 76.535316 -24.526369 -2.562269 111.407227 2.836285 -33.473289 9.407094 -11.145008 -1.932576 -83.103188 18.300648 -14.895824 80.675392 1.749591 -4.075201 -11.957456 -9.439489 -14.066579 -53.171562 -36.990200 -7.385856 81.010796 -2.245824 3.487405 -21.735317 -16.031464 5.299131 
